# xmcd CD database file
#
# Track frame offsets:
#	150
#	23271
#	36041
#	63162
#	86210
#	107733
#	150089
#	169872
#	190471
#	219153
#	237563
#	259619
#	280690
#
# Disc length: 4036 seconds
#
# Revision: 0
# Processed by: cddbd v1.4PL0 Copyright (c) Steve Scherf et al.
# Submitted via: CDex 1.50Beta7
#
DISCID=9f0fc20d
DTITLE=Stevie Ray Vaughan - Concord Pavilion [Disc 1]
DYEAR=1988
DGENRE=Blues
TTITLE0=Instrumental
TTITLE1=Scuttle Buttin'
TTITLE2=Say What?
TTITLE3=Lookin' Out The Window
TTITLE4=Look At Little Sister
TTITLE5=Mary Had A Little Lamb
TTITLE6=You'll Be Mine
TTITLE7=Let Me Love You Baby
TTITLE8=Leave My Girl Alone
TTITLE9=Love Struck Baby
TTITLE10=Pride And Joy
TTITLE11=Superstition
TTITLE12=Willie the Wimp
EXTD=YEAR: 1988
EXTT0=
EXTT1=
EXTT2=
EXTT3=
EXTT4=
EXTT5=
EXTT6=
EXTT7=
EXTT8=
EXTT9=
EXTT10=
EXTT11=
EXTT12=
PLAYORDER=
